<?xml version="1.0" encoding="UTF-8"?>
<svg id="Layer_1" xmlns="http://www.w3.org/2000/svg" version="1.1" viewBox="0 0 341.08 414.18">
  <!-- Generator: Adobe Illustrator 29.2.1, SVG Export Plug-In . SVG Version: 2.1.0 Build 116)  -->
  <defs>
    <style>
      .st0 {
        fill: #fff;
      }

      .st1 {
        fill: #9dc7ea;
      }

      .st2 {
        fill: #f49529;
      }
    </style>
  </defs>
  <g>
    <path class="st0" d="M340.51,265.51L294.56,7.54c-2.17-12.18-14.75-8.35-19.87,2.59-8.46,18.11-34.14,72.67-44.69,95.08-2.86,6.07-8.67,10.2-15.35,10.92l-122.71,13.15c-6.89.74-13.52-2.83-16.71-8.98-9.65-18.66-29.7-57.48-35.79-69.8-6.54-13.24-19.31-15.56-20.46-2.17C13.56,111.72,4.67,215.51.13,268.47c-1.52,17.8,10.08,33.36,24.86,33.35l291.56-.21c15.68-.01,27.28-17.48,23.96-36.1ZM78.91,251.41l-5.04.09c-2.42.05-4.41-2.66-4.32-5.89l1.26-46.15c.08-2.91,1.83-5.19,4.01-5.23,2.18-.04,4.06,2.17,4.29,5.08l3.78,46.06c.26,3.22-1.57,6-3.99,6.04ZM189.5,248.82l-5.86.1c-2.81.05-5.12-2.94-5.02-6.5l1.47-51.01c.09-3.21,2.13-5.74,4.66-5.78,2.54-.05,4.71,2.4,4.99,5.61l4.39,50.9c.31,3.56-1.83,6.63-4.64,6.68ZM329.93,254.14c1.2,0,2.17.97,2.17,2.17s-.97,2.17-2.17,2.17-2.17-.97-2.17-2.17.97-2.17,2.17-2.17ZM328.84,285.84c-4,7.85-11.69,10.94-20.11,11.46-2.27.14-2.26-3.39,0-3.53,17.3-1.08,20.21-15.11,20.01-29.69-.03-2.28,3.5-2.27,3.53,0,.1,7.31-.04,15.1-3.43,21.76Z"/>
    <path class="st2" d="M78.91,251.41l-5.04.09c-2.42.05-4.41-2.66-4.32-5.89l1.26-46.15c.08-2.91,1.83-5.19,4.01-5.23,2.18-.04,4.06,2.17,4.29,5.08l3.78,46.06c.26,3.22-1.57,6-3.99,6.04Z"/>
    <path class="st1" d="M189.5,248.82l-5.86.1c-2.81.05-5.12-2.94-5.02-6.5l1.47-51.01c.09-3.21,2.13-5.74,4.66-5.78,2.54-.05,4.71,2.4,4.99,5.61l4.39,50.9c.31,3.56-1.83,6.63-4.64,6.68Z"/>
  </g>
  <g>
    <path class="st0" d="M6.72,337.7c.03-12.52,7.3-20.87,20.06-20.8l44.19.25-.44,75.61c-.03,12.52-7.3,20.87-20.2,20.8l-23.74-.13c-11.22-.06-20.29-9.74-20.26-21.63l.39-54.09ZM40.68,394.23c.81,0,1.21-1.13,1.22-2.41l.44-52.23c.02-2.05-1.56-3.71-3.49-3.69h-.08s-.06,0-.08,0c-1.9.08-3.33,1.87-3.35,3.89l-.38,54.54,5.74-.1Z"/>
    <path class="st0" d="M77.92,317.05l64.19.35-.49,96.52-28.62-.23.45-77.46-6.95.1-.45,77.46-28.62-.23.49-96.52Z"/>
    <path class="st0" d="M148.7,413.56l.49-96.52,33.44.19-.49,96.52-33.44-.19Z"/>
    <path class="st0" d="M295.19,392.69l-6.95.1-.05,21.34-28.62-.23.49-96.52,52.18.29c6.63.04,11.98,5.44,11.94,12.08l-.39,71.02c-.02,7.45-5.73,13.45-12.76,13.41l-15.89-.16.05-21.34ZM288.18,368.5l6.95-.1.46-31.84-6.95.1-.46,31.84Z"/>
    <path class="st0" d="M189.54,395.34l31.3.17c.81,0,1.21-.85,1.21-1.84l-.11-5.51-32.5-.18.44-51.02c.03-12.52,7.71-20.87,20.47-20.8l43.11.24-.56,45.23-27.96-.22.51-26.17-5.73.11c-.81,0-1.21,1.27-1.22,2.55l-.4,30.97,34.9.13v23.02c-.02,12.52-7.3,20.87-20.05,20.8l-43.52-.24.11-17.23Z"/>
  </g>
</svg>